<svg width="233" height="332" viewBox="0 0 233 332" fill="none" xmlns="http://www.w3.org/2000/svg">
<path d="M153.739 76.6932V114.202C153.739 114.549 153.612 114.881 153.386 115.126C153.161 115.371 152.855 115.509 152.537 115.51H151.68V310.906C151.68 316.313 149.704 321.499 146.187 325.322C142.671 329.146 137.901 331.294 132.927 331.294H20.6236C18.1612 331.294 15.723 330.766 13.4482 329.741C11.1733 328.717 9.10645 327.215 7.36553 325.322C5.6246 323.428 4.24374 321.181 3.30179 318.708C2.35984 316.234 1.87525 313.583 1.8757 310.906V122.363H1.25585C1.03096 122.363 0.815107 122.267 0.655595 122.094C0.496083 121.922 0.405929 121.688 0.404873 121.443V100.096C0.404853 99.9748 0.426846 99.8544 0.469605 99.7422C0.512364 99.6299 0.575047 99.5279 0.654072 99.442C0.733097 99.3561 0.826916 99.288 0.930171 99.2415C1.03343 99.195 1.1441 99.1711 1.25585 99.1711H1.8757V91.1302H1.25058C1.0145 91.1292 0.78843 91.0265 0.621994 90.8445C0.455559 90.6624 0.362363 90.4161 0.362856 90.1594V69.1035C0.363455 68.8478 0.457184 68.6027 0.623533 68.4218C0.789883 68.241 1.01532 68.1391 1.25058 68.1384H1.87569V57.1622H1.24008C1.13657 57.1623 1.03404 57.1403 0.938379 57.0973C0.842718 57.0543 0.755802 56.9912 0.682607 56.9116C0.609412 56.832 0.55138 56.7375 0.51183 56.6335C0.472281 56.5295 0.451993 56.4181 0.452132 56.3055V44.8153C0.451658 44.5875 0.534357 44.3687 0.682078 44.207C0.829799 44.0454 1.03048 43.954 1.24008 43.953H1.87569V20.687C1.87588 15.2815 3.85115 10.0973 7.36703 6.27501C10.8829 2.45269 15.6514 0.305251 20.6236 0.305054H132.927C137.9 0.305029 142.669 2.45222 146.186 6.27442C149.703 10.0966 151.679 15.2809 151.68 20.687V75.3855H152.537C152.855 75.3864 153.161 75.5245 153.386 75.7695C153.612 76.0146 153.739 76.3467 153.739 76.6932V76.6932Z" fill="#3F3D56"/>
<path d="M82.1861 10.7598H63.9374C63.2 10.7598 62.6022 11.4097 62.6022 12.2114V13.9262C62.6022 14.7279 63.2 15.3778 63.9374 15.3778H82.1861C82.9235 15.3778 83.5213 14.7279 83.5213 13.9262V12.2114C83.5213 11.4097 82.9235 10.7598 82.1861 10.7598Z" fill="#E6E8EC"/>
<path d="M89.0936 15.6882C90.4243 15.6882 91.503 14.5155 91.503 13.0688C91.503 11.6222 90.4243 10.4495 89.0936 10.4495C87.763 10.4495 86.6843 11.6222 86.6843 13.0688C86.6843 14.5155 87.763 15.6882 89.0936 15.6882Z" fill="#E6E8EC"/>
<path d="M142.7 24.7192V312.597C142.702 314.469 142.329 316.318 141.607 318.018C140.885 319.717 139.831 321.225 138.519 322.437C136.367 324.431 133.631 325.527 130.802 325.526H23.3C21.3873 325.529 19.5022 325.03 17.8054 324.07C17.4068 323.848 17.0209 323.6 16.6498 323.328C15.0341 322.143 13.7106 320.544 12.7957 318.673C11.8807 316.802 11.4022 314.716 11.402 312.597V24.7192C11.402 23.0206 11.7097 21.3385 12.3076 19.7691C12.9055 18.1997 13.7819 16.7737 14.8867 15.5726C15.9916 14.3715 17.3032 13.4187 18.7468 12.7686C20.1904 12.1186 21.7376 11.7841 23.3 11.7842H39.3899V14.0285C39.39 16.8533 40.4221 19.5623 42.2594 21.5597C44.0966 23.5571 46.5885 24.6792 49.1868 24.6792H103.86C106.458 24.6792 108.95 23.5571 110.787 21.5597C112.624 19.5623 113.657 16.8533 113.657 14.0285V11.7842H130.802C132.365 11.7836 133.912 12.1178 135.356 12.7677C136.8 13.4175 138.112 14.3703 139.217 15.5715C140.322 16.7728 141.198 18.1989 141.796 19.7685C142.394 21.3381 142.701 23.0204 142.7 24.7192Z" fill="#6C63FF"/>
<path opacity="0.3" d="M142.7 271.388V312.597C142.702 314.469 142.329 316.318 141.607 318.018C140.885 319.717 139.831 321.225 138.519 322.437C136.367 324.431 133.631 325.527 130.802 325.526H23.3C21.3873 325.529 19.5022 325.03 17.8054 324.07C17.4068 323.848 17.0209 323.6 16.6498 323.328C15.0341 322.142 13.7106 320.544 12.7957 318.673C11.8807 316.802 11.4022 314.716 11.402 312.597V271.405C29.4283 253.789 52.8097 244.041 77.0482 244.038C101.287 244.035 124.67 253.776 142.7 271.388Z" fill="white"/>
<path opacity="0.3" d="M136.308 324.059C134.61 325.028 132.72 325.532 130.802 325.526H23.3002C21.3874 325.529 19.5023 325.03 17.8055 324.07C22.6723 311.345 30.8966 300.472 41.4408 292.823C51.9851 285.174 64.3769 281.091 77.0531 281.09C89.7292 281.089 102.122 285.169 112.667 292.816C123.213 300.463 131.439 311.335 136.308 324.059V324.059Z" fill="white"/>
<path opacity="0.3" d="M112.911 324.749C111.883 325.336 110.74 325.641 109.58 325.637H44.5272C43.3698 325.639 42.229 325.337 41.2023 324.756C44.1473 317.056 49.124 310.477 55.5046 305.848C61.8852 301.219 69.3838 298.749 77.0544 298.748C84.7251 298.747 92.2241 301.217 98.6054 305.844C104.987 310.471 109.965 317.05 112.911 324.749V324.749Z" fill="white"/>
<path d="M104.399 123.231C93.6151 123.231 81.7805 120.999 72.5416 113.466C59.6785 102.978 43.8305 103.537 32.801 105.854C25.4748 107.406 18.3638 109.981 11.6449 113.515L11.1591 112.502C17.96 108.922 25.158 106.313 32.5743 104.738C43.8205 102.372 59.9932 101.807 73.1721 112.552C97.8608 132.683 142.069 114.602 142.512 114.418L142.889 115.484C134.599 118.697 126.024 120.966 117.304 122.256C113.027 122.89 108.716 123.216 104.399 123.231Z" fill="white"/>
<path opacity="0.3" d="M11.3967 113.009C11.3967 113.009 47.6423 103.465 72.8567 116.532C98.071 129.6 142.721 116.435 142.721 116.435" fill="white"/>
<path opacity="0.3" d="M45.6154 127.835C41.2369 127.813 36.8702 127.339 32.5743 126.419C25.158 124.845 17.96 122.235 11.1591 118.655L11.6449 117.642C18.3638 121.176 25.4748 123.751 32.801 125.303C43.83 127.62 59.6782 128.18 72.5416 117.692C85.709 106.956 104.153 106.986 117.304 108.902C126.024 110.191 134.599 112.46 142.889 115.673L142.512 116.739C142.069 116.554 97.8613 98.474 73.1721 118.605C64.5298 125.652 54.5991 127.835 45.6154 127.835Z" fill="white"/>
<path opacity="0.3" d="M45.7939 123.236C27.6005 123.236 11.4443 116.14 11.2019 116.032L11.602 114.975C11.9616 115.137 47.894 130.908 72.5892 115.012C97.7115 98.8391 142.404 113.275 142.853 113.423L142.548 114.516C142.104 114.37 97.849 100.079 73.1243 115.995C64.6867 121.427 54.9801 123.236 45.7939 123.236Z" fill="white"/>
<path opacity="0.3" d="M11.402 114.625C11.402 114.625 47.6424 127.693 72.8567 114.625C98.071 101.557 142.7 113.39 142.7 113.39" fill="white"/>
<path d="M152.055 149.586V166.235C152.055 166.235 153.281 184.882 160.019 194.205C160.019 194.205 171.045 211.186 172.576 207.524L170.69 195.465L164.307 188.877L160.937 168.233L160.019 149.586H152.055Z" fill="#FFB8B8"/>
<path d="M219.743 300.09V312.41L210.555 316.073V301.755L219.743 300.09Z" fill="#FFB8B8"/>
<path d="M201.06 298.759L207.186 313.742L198.61 317.738L196.772 303.087L201.06 298.759Z" fill="#FFB8B8"/>
<path d="M216.374 183.883C216.374 183.883 228.625 304.086 224.031 304.419C219.437 304.752 210.555 311.079 210.555 306.75C210.555 302.421 203.51 246.149 203.51 246.149L196.772 217.18V257.137L203.817 302.421C203.817 302.421 197.078 312.078 192.178 306.417L181.765 262.132C181.765 262.132 167.982 194.871 168.595 189.543C168.595 189.543 200.141 160.241 216.374 183.883Z" fill="#2F2E41"/>
<path d="M213.924 313.077C213.924 313.077 216.374 307.416 221.887 311.079L226.481 317.072C226.481 317.072 238.326 327.736 229.921 330.021C221.258 332.375 216.068 329.87 216.068 329.87C216.068 329.87 214.536 328.871 213.311 328.871C212.086 328.871 209.33 326.541 209.33 325.875C209.33 325.209 210.248 313.41 210.248 313.41C210.595 313.226 210.985 313.159 211.367 313.219C211.749 313.278 212.106 313.46 212.392 313.742C213.311 314.741 213.924 313.077 213.924 313.077Z" fill="#2F2E41"/>
<path d="M195.853 311.079C195.853 311.079 201.673 306.084 204.429 311.745C204.429 311.745 206.165 312.411 206.369 311.745C206.573 311.079 208.104 310.746 208.104 314.408C208.104 318.071 209.768 327.207 208.236 327.54C206.705 327.873 205.173 328.871 205.48 330.203C205.786 331.535 203.817 331.723 196.772 331.39C189.728 331.057 189.422 328.06 189.422 328.06C189.422 328.06 189.421 323.732 191.259 321.401C193.097 319.07 195.853 311.079 195.853 311.079Z" fill="#2F2E41"/>
<path d="M184.521 92.9808C184.521 92.9808 182.99 105.301 192.791 109.63C202.592 113.958 171.045 128.276 167.982 119.952C164.919 111.627 168.595 108.964 168.595 108.964C168.595 108.964 171.657 105.634 168.901 96.6436L184.521 92.9808Z" fill="#FFB8B8"/>
<path d="M174.72 101.638C182.163 101.638 188.196 95.0787 188.196 86.9873C188.196 78.8958 182.163 72.3364 174.72 72.3364C167.277 72.3364 161.244 78.8958 161.244 86.9873C161.244 95.0787 167.277 101.638 174.72 101.638Z" fill="#FFB8B8"/>
<path d="M190.34 113.625C190.34 113.625 181.152 118.953 172.27 114.957C163.388 110.961 163.694 128.276 163.694 128.276L168.288 141.262L200.141 137.932L197.997 117.954L190.34 113.625Z" fill="#F2F2F2"/>
<path d="M185.775 102.232C187.407 102.608 188.939 103.379 190.26 104.486C191.58 105.594 192.654 107.01 193.403 108.631L208.104 113.625L211.78 119.286L207.492 160.241C207.492 160.241 215.455 168.566 215.455 173.227C215.455 177.889 225.256 193.872 220.356 191.874C215.455 189.876 206.573 182.884 206.573 182.884C206.573 182.884 184.215 183.883 177.17 190.542C170.126 197.202 167.369 195.204 167.369 195.204C167.369 195.204 160.019 160.574 159.713 155.247C159.406 149.919 150.83 117.954 150.83 117.954L166.144 108.631L170.045 103.819L180.846 122.615L190.647 109.629C190.647 109.629 185.804 105.489 185.775 102.232Z" fill="#3F3D56"/>
<path d="M216.374 144.925L218.212 155.58C218.212 155.58 226.481 188.877 225.256 200.198C225.256 200.198 226.175 225.504 220.968 222.508C215.761 219.511 218.518 201.197 218.518 201.197L211.167 168.233L207.186 148.92L216.374 144.925Z" fill="#FFB8B8"/>
<path d="M208.717 117.288L211.78 119.286C211.78 119.286 223.418 145.591 220.662 147.589C217.905 149.586 205.96 153.915 205.96 153.915L208.717 117.288Z" fill="#3F3D56"/>
<path d="M158.181 117.954L150.983 117.787L149.299 120.951L151.443 153.249L162.469 155.913L158.181 117.954Z" fill="#3F3D56"/>
<path d="M185.694 74.5964L188.123 73.6361C188.123 73.6361 183.044 68.1146 175.978 68.5947L177.965 66.4341C177.965 66.4341 173.107 64.5136 168.691 69.5549C166.369 72.2051 163.683 75.3202 162.009 78.8293H159.407L160.493 81.19L156.693 83.5506L160.593 83.1266C160.224 85.1646 160.351 87.2723 160.962 89.2404L161.846 91.8811C161.846 91.8811 165.379 84.199 165.379 83.2387V85.6393C165.379 85.6393 167.808 83.4788 167.808 82.0384L169.133 83.7188L169.795 81.0781L177.965 83.7188L176.64 81.5582L181.719 82.2784L179.732 79.6377C179.732 79.6377 185.473 82.7586 185.694 85.3993C185.915 88.0401 187.431 91.4823 187.431 91.4823L189.268 89.1515C189.268 89.1515 192.098 78.1973 185.694 74.5964Z" fill="#2F2E41"/>
<path d="M186.052 90.1506C186.644 90.1506 187.124 88.8089 187.124 87.1539C187.124 85.4988 186.644 84.1571 186.052 84.1571C185.46 84.1571 184.98 85.4988 184.98 87.1539C184.98 88.8089 185.46 90.1506 186.052 90.1506Z" fill="#FFB8B8"/>
<path opacity="0.3" d="M11.402 113.009C11.402 113.009 47.6424 92.4498 72.8567 113.009C98.071 133.568 142.7 114.951 142.7 114.951" fill="white"/>
<path d="M77.1905 322.211C80.3818 322.211 82.9688 319.398 82.9688 315.929C82.9688 312.459 80.3818 309.647 77.1905 309.647C73.9993 309.647 71.4122 312.459 71.4122 315.929C71.4122 319.398 73.9993 322.211 77.1905 322.211Z" fill="white"/>
</svg>
