<svg width="1280" height="442" viewBox="0 0 1280 442" fill="none" xmlns="http://www.w3.org/2000/svg">
<rect width="1280" height="442" fill="#6C63FF"/>
<path opacity="0.25" d="M703 350.5C703 383.751 694.252 414.958 678.931 441.946C622.393 441.946 572.459 441.946 503.261 441.946C456.059 441.946 424.003 441.946 394.912 441.946C385.395 441.541 378.567 441.946 369.103 441.946C365.319 441.946 361.644 441.946 356.069 441.946C340.748 414.958 332 383.751 332 350.5C332 248.051 415.051 165 517.5 165C619.949 165 703 248.051 703 350.5Z" fill="#E6E8EC"/>
<circle opacity="0.25" cx="1105.5" cy="127.5" r="97.5" fill="#E5E5E5"/>
<circle opacity="0.25" cx="214.5" cy="127.5" r="97.5" fill="#E5E5E5"/>
</svg>
