<svg width="40" height="41" viewBox="0 0 40 41" fill="none" xmlns="http://www.w3.org/2000/svg">
<circle cx="20" cy="20.5" r="20" fill="#1DA1F2"/>
<path fill-rule="evenodd" clip-rule="evenodd" d="M32 12.8086C31.1177 13.2006 30.1681 13.4646 29.1722 13.5838C30.1889 12.9742 30.9697 12.0095 31.3368 10.86C30.3865 11.4247 29.3314 11.8335 28.2107 12.0551C27.3123 11.0984 26.0316 10.5 24.6165 10.5C21.8975 10.5 19.6928 12.7047 19.6928 15.4237C19.6928 15.8092 19.7368 16.1852 19.8208 16.546C15.7283 16.3412 12.1005 14.3805 9.67189 11.4015C9.24792 12.1287 9.00553 12.9742 9.00553 13.8766C9.00553 15.5845 9.87347 17.0916 11.1958 17.9747C10.3878 17.9491 9.62949 17.7275 8.96473 17.3587V17.4203C8.96473 19.8066 10.663 21.796 12.9141 22.2496C12.5013 22.3616 12.0661 22.4224 11.6174 22.4224C11.2998 22.4224 10.991 22.3912 10.6902 22.3336C11.3166 24.2895 13.1357 25.7134 15.2899 25.7534C13.6052 27.0733 11.4822 27.8612 9.17512 27.8612C8.77675 27.8612 8.38477 27.838 8 27.7916C10.1791 29.1884 12.7669 30.0043 15.5475 30.0043C24.6037 30.0043 29.5562 22.5016 29.5562 15.9956C29.5562 15.782 29.5522 15.5693 29.5418 15.3589C30.5049 14.6629 31.34 13.7958 32 12.8086Z" fill="white"/>
</svg>
