<svg width="545" height="57" viewBox="0 0 545 57" fill="none" xmlns="http://www.w3.org/2000/svg">
<path d="M139.307 36.2157C137.838 36.2157 136.403 35.743 135.183 34.8575C133.962 33.9719 133.01 32.7132 132.449 31.2406C131.887 29.768 131.74 28.1475 132.026 26.5842C132.313 25.0208 133.02 23.5848 134.058 22.4577C135.096 21.3306 136.419 20.563 137.858 20.252C139.298 19.9411 140.791 20.1007 142.147 20.7106C143.504 21.3206 144.663 22.3536 145.479 23.679C146.294 25.0043 146.73 26.5625 146.73 28.1564C146.727 30.2931 145.945 32.3416 144.553 33.8525C143.161 35.3634 141.275 36.2132 139.307 36.2157V36.2157ZM139.307 21.4404C138.083 21.4404 136.887 21.8343 135.87 22.5722C134.853 23.3102 134.06 24.3591 133.592 25.5863C133.123 26.8135 133.001 28.1639 133.24 29.4667C133.478 30.7695 134.067 31.9662 134.933 32.9054C135.798 33.8447 136.9 34.4843 138.1 34.7434C139.3 35.0026 140.544 34.8696 141.674 34.3613C142.804 33.853 143.77 32.9921 144.45 31.8877C145.13 30.7832 145.493 29.4847 145.493 28.1564C145.491 26.3758 144.838 24.6687 143.679 23.4096C142.519 22.1506 140.947 21.4424 139.307 21.4404V21.4404Z" fill="#3F3D56"/>
<path d="M514.099 56.0619H501.888V42.8036H514.099V56.0619ZM502.827 55.042H513.16V43.8235H502.827V55.042Z" fill="#3F3D56"/>
<path d="M100.659 56.7873L92.3293 47.0919L101.259 38.0487L109.589 47.7441L100.659 56.7873ZM93.657 47.1421L100.705 55.3459L108.261 47.6939L101.213 39.4901L93.657 47.1421Z" fill="#3F3D56"/>
<path d="M544.411 55.3134H13.7644V56.6566H544.411V55.3134Z" fill="#3F3D56"/>
<path d="M26.1126 34.0601C33.8008 49.54 50.1178 56.1851 50.1178 56.1851C50.1178 56.1851 53.9698 37.7325 46.2817 22.2527C38.5935 6.77283 22.2765 0.127686 22.2765 0.127686C22.2765 0.127686 18.4245 18.5803 26.1126 34.0601Z" fill="#3F3D56"/>
<path d="M31.3968 28.9678C45.277 38.0343 50.6227 56.0428 50.6227 56.0428C50.6227 56.0428 33.4641 59.3517 19.5839 50.2852C5.70364 41.2187 0.35791 23.2102 0.35791 23.2102C0.35791 23.2102 17.5165 19.9013 31.3968 28.9678Z" fill="#6C63FF"/>
</svg>
