<svg width="67" height="58" viewBox="0 0 67 58" fill="none" xmlns="http://www.w3.org/2000/svg">
<path d="M0.25 12.875H29.5L31.75 18.25H2.5L0.25 12.875ZM3.25 23.625H32.5L34.75 29H5.5L3.25 23.625ZM52 52.2916C54.49 52.2916 56.5 49.8908 56.5 46.9166C56.5 43.9425 54.49 41.5416 52 41.5416C49.51 41.5416 47.5 43.9425 47.5 46.9166C47.5 49.8908 49.51 52.2916 52 52.2916ZM56.5 20.0416H49V29H62.38L56.5 20.0416ZM22 52.2916C24.49 52.2916 26.5 49.8908 26.5 46.9166C26.5 43.9425 24.49 41.5416 22 41.5416C19.51 41.5416 17.5 43.9425 17.5 46.9166C17.5 49.8908 19.51 52.2916 22 52.2916ZM58 14.6666L67 29V46.9166H61C61 52.865 56.98 57.6666 52 57.6666C47.02 57.6666 43 52.865 43 46.9166H31C31 52.865 26.95 57.6666 22 57.6666C17.02 57.6666 13 52.865 13 46.9166H7V34.375H13V39.75H15.28C16.93 37.5641 19.33 36.1666 22 36.1666C24.67 36.1666 27.07 37.5641 28.72 39.75H43V7.49998H7C7 3.52248 9.67 0.333313 13 0.333313H49V14.6666H58Z" fill="#6C63FF"/>
</svg>
