<svg width="76" height="76" viewBox="0 0 76 76" fill="none" xmlns="http://www.w3.org/2000/svg">
<path d="M38.2923 72.5563C54.5979 72.5563 67.8161 59.1052 67.8161 42.5125C67.8161 25.9198 54.5979 12.4688 38.2923 12.4688C21.9868 12.4688 8.76855 25.9198 8.76855 42.5125C8.76855 59.1052 21.9868 72.5563 38.2923 72.5563Z" fill="#428BC1"/>
<path d="M38.292 65.9063C50.9741 65.9063 61.255 55.4326 61.255 42.5126C61.255 29.5926 50.9741 19.1188 38.292 19.1188C25.61 19.1188 15.3291 29.5926 15.3291 42.5126C15.3291 55.4326 25.61 65.9063 38.292 65.9063Z" fill="white"/>
<path d="M13.5716 57.3563L10.9941 73.625H13.2201C14.626 73.625 15.0947 71.9625 16.0319 69.9438C17.2035 67.3313 20.0153 60.5625 20.0153 60.5625L13.5716 57.3563Z" fill="#428BC1"/>
<path d="M62.8954 57.3563L65.59 73.625H63.364C61.9581 73.625 61.4895 71.9625 60.5522 69.9438C59.3806 67.3313 56.5688 60.5625 56.5688 60.5625L62.8954 57.3563Z" fill="#428BC1"/>
<path d="M16.2667 12.1124L23.179 19.1187L19.5471 22.9187L12.6348 15.7937L16.2667 12.1124Z" fill="#428BC1"/>
<path d="M60.3178 12.1124L53.4055 19.1187L57.0374 22.9187L63.9497 15.7937L60.3178 12.1124Z" fill="#428BC1"/>
<path d="M7.36243 28.025L27.9822 6.76875C25.4047 4.0375 21.7729 2.375 17.6723 2.375C9.58843 2.375 3.02759 9.14375 3.02759 17.3375C3.02759 21.4938 4.6678 25.2938 7.36243 28.025Z" fill="#B0B8B8"/>
<path d="M48.1333 6.8875L68.9874 27.9062C71.682 25.175 73.3222 21.4938 73.3222 17.3375C73.3222 9.14375 66.7614 2.375 58.5604 2.375C54.4598 2.49375 50.8279 4.15625 48.1333 6.8875Z" fill="#B0B8B8"/>
<path d="M24.8186 55.3376L36.8859 42.8688L38.2918 44.2938L26.2245 56.6438L24.8186 55.3376Z" fill="#ED4C5C"/>
<path d="M38.2924 46.9061C40.6864 46.9061 42.6272 44.9389 42.6272 42.5123C42.6272 40.0857 40.6864 38.1186 38.2924 38.1186C35.8983 38.1186 33.9575 40.0857 33.9575 42.5123C33.9575 44.9389 35.8983 46.9061 38.2924 46.9061Z" fill="#428BC1"/>
<path d="M36.0662 25.7687H40.401V43.5812H36.0662V25.7687Z" fill="#428BC1"/>
<path d="M40.4011 40.2561H49.188V44.6498H40.4011V40.2561Z" fill="#428BC1"/>
</svg>
