<svg width="40" height="41" viewBox="0 0 40 41" fill="none" xmlns="http://www.w3.org/2000/svg">
<circle cx="20" cy="20.5" r="20" fill="#C13584"/>
<path d="M20 10.6622C23.2041 10.6622 23.5837 10.6744 24.849 10.7321C26.019 10.7855 26.6544 10.981 27.0773 11.1453C27.6374 11.363 28.0371 11.623 28.457 12.0429C28.877 12.4629 29.137 12.8626 29.3547 13.4227C29.519 13.8456 29.7145 14.481 29.7679 15.6509C29.8256 16.9163 29.8378 17.2958 29.8378 20.4999C29.8378 23.7041 29.8256 24.0836 29.7679 25.349C29.7145 26.519 29.519 27.1543 29.3547 27.5772C29.137 28.1373 28.877 28.5371 28.4571 28.957C28.0371 29.3769 27.6374 29.6369 27.0773 29.8546C26.6544 30.019 26.019 30.2144 24.849 30.2678C23.5839 30.3255 23.2044 30.3378 20 30.3378C16.7956 30.3378 16.4162 30.3255 15.151 30.2678C13.981 30.2144 13.3456 30.019 12.9227 29.8546C12.3626 29.6369 11.9629 29.3769 11.543 28.957C11.1231 28.5371 10.863 28.1373 10.6453 27.5772C10.481 27.1543 10.2855 26.519 10.2321 25.349C10.1744 24.0836 10.1622 23.7041 10.1622 20.4999C10.1622 17.2958 10.1744 16.9163 10.2321 15.6509C10.2855 14.481 10.481 13.8456 10.6453 13.4227C10.863 12.8626 11.123 12.4629 11.543 12.043C11.9629 11.623 12.3626 11.363 12.9227 11.1453C13.3456 10.981 13.981 10.7855 15.151 10.7321C16.4163 10.6744 16.7959 10.6622 20 10.6622ZM20 8.5C16.741 8.5 16.3323 8.51381 15.0524 8.57221C13.7752 8.63047 12.9028 8.83334 12.1395 9.12996C11.3504 9.43663 10.6812 9.84694 10.0141 10.5141C9.34695 11.1812 8.93663 11.8504 8.63001 12.6395C8.33334 13.4028 8.13047 14.2751 8.07221 15.5524C8.01381 16.8323 8 17.241 8 20.4999C8 23.759 8.01381 24.1676 8.07221 25.4475C8.13047 26.7248 8.33334 27.5971 8.63001 28.3604C8.93663 29.1495 9.34695 29.8187 10.0141 30.4859C10.6812 31.153 11.3504 31.5633 12.1395 31.8699C12.9028 32.1666 13.7752 32.3694 15.0524 32.4277C16.3323 32.4861 16.741 32.4999 20 32.4999C23.259 32.4999 23.6677 32.4861 24.9476 32.4277C26.2248 32.3694 27.0972 32.1666 27.8605 31.8699C28.6496 31.5633 29.3188 31.153 29.9859 30.4859C30.653 29.8187 31.0634 29.1495 31.37 28.3604C31.6667 27.5971 31.8695 26.7248 31.9278 25.4475C31.9862 24.1676 32 23.759 32 20.4999C32 17.241 31.9862 16.8323 31.9278 15.5524C31.8695 14.2751 31.6667 13.4028 31.37 12.6395C31.0634 11.8504 30.653 11.1812 29.9859 10.5141C29.3188 9.84694 28.6496 9.43663 27.8605 9.12996C27.0972 8.83334 26.2248 8.63047 24.9476 8.57221C23.6677 8.51381 23.259 8.5 20 8.5Z" fill="white"/>
<path d="M20.0057 14.3434C16.6024 14.3434 13.8435 17.1022 13.8435 20.5055C13.8435 23.9088 16.6024 26.6677 20.0057 26.6677C23.409 26.6677 26.1678 23.9088 26.1678 20.5055C26.1678 17.1022 23.409 14.3434 20.0057 14.3434ZM20.0057 24.5055C17.7965 24.5055 16.0057 22.7147 16.0057 20.5055C16.0057 18.2964 17.7965 16.5055 20.0057 16.5055C22.2148 16.5055 24.0057 18.2964 24.0057 20.5055C24.0057 22.7147 22.2148 24.5055 20.0057 24.5055Z" fill="white"/>
<path d="M27.8507 14.0962C27.8507 14.8914 27.206 15.5361 26.4107 15.5361C25.6154 15.5361 24.9707 14.8914 24.9707 14.0962C24.9707 13.3009 25.6154 12.6561 26.4107 12.6561C27.206 12.6561 27.8507 13.3009 27.8507 14.0962Z" fill="white"/>
</svg>
