<svg width="179" height="45" viewBox="0 0 179 45" fill="none" xmlns="http://www.w3.org/2000/svg">
<path d="M1.47778 35.8078L16.22 20.4281L4.90435 4.09213C4.34653 4.80932 3.9481 5.76556 3.86841 6.88119L0.999658 32.939C0.919971 34.0546 1.07935 35.0109 1.47778 35.8078Z" fill="#6C63FF"/>
<path d="M50.9636 1.38282L29.6073 21.225L46.4214 43.9359C47.3776 43.1391 48.0151 41.9438 48.1745 40.5094L51.9995 4.96876C52.1589 3.53438 51.6808 2.1797 50.9636 1.38282Z" fill="#6C63FF"/>
<path d="M21.4793 28.3968L16.22 20.4281L1.47778 35.8078C1.79653 36.5249 2.35435 37.0031 2.99185 37.1624L43.4731 44.8124C44.5887 45.0515 45.6245 44.6531 46.4214 43.9359L29.6073 21.225L21.4793 28.3968Z" fill="#6C63FF"/>
<path d="M48.2549 0.187583L6.65802 2.97665C6.02052 3.05633 5.38247 3.45463 4.90435 4.09213L16.3002 20.4282L21.5596 28.397L29.6877 21.2251L50.9636 1.38282C50.2464 0.585945 49.2908 0.107896 48.2549 0.187583Z" fill="#6C63FF"/>
<path d="M29.0502 15.8062L29.5283 11.7421L15.583 11.6624L13.2721 30.7078L26.819 33.8953L27.3768 29.8312L17.1768 27.839L17.7346 23.4562L27.9346 24.8906L28.4127 20.8265L18.133 19.7906L18.6908 15.3281L29.0502 15.8062Z" fill="white"/>
<path d="M73.7749 31.25C72.4249 31.25 71.1166 31.0583 69.8499 30.675C68.5999 30.2917 67.6083 29.7833 66.8749 29.15L67.9999 26.625C68.7166 27.1917 69.5916 27.6583 70.6249 28.025C71.6749 28.375 72.7249 28.55 73.7749 28.55C75.0749 28.55 76.0416 28.3417 76.6749 27.925C77.3249 27.5083 77.6499 26.9583 77.6499 26.275C77.6499 25.775 77.4666 25.3667 77.0999 25.05C76.7499 24.7167 76.2999 24.4583 75.7499 24.275C75.1999 24.0917 74.4499 23.8833 73.4999 23.65C72.1666 23.3333 71.0833 23.0167 70.2499 22.7C69.4333 22.3833 68.7249 21.8917 68.1249 21.225C67.5416 20.5417 67.2499 19.625 67.2499 18.475C67.2499 17.5083 67.5083 16.6333 68.0249 15.85C68.5583 15.05 69.3499 14.4167 70.3999 13.95C71.4666 13.4833 72.7666 13.25 74.2999 13.25C75.3666 13.25 76.4166 13.3833 77.4499 13.65C78.4833 13.9167 79.3749 14.3 80.1249 14.8L79.0999 17.325C78.3333 16.875 77.5333 16.5333 76.6999 16.3C75.8666 16.0667 75.0583 15.95 74.2749 15.95C72.9916 15.95 72.0333 16.1667 71.3999 16.6C70.7833 17.0333 70.4749 17.6083 70.4749 18.325C70.4749 18.825 70.6499 19.2333 70.9999 19.55C71.3666 19.8667 71.8249 20.1167 72.3749 20.3C72.9249 20.4833 73.6749 20.6917 74.6249 20.925C75.9249 21.225 76.9916 21.5417 77.8249 21.875C78.6583 22.1917 79.3666 22.6833 79.9499 23.35C80.5499 24.0167 80.8499 24.9167 80.8499 26.05C80.8499 27.0167 80.5833 27.8917 80.0499 28.675C79.5333 29.4583 78.7416 30.0833 77.6749 30.55C76.6083 31.0167 75.3083 31.25 73.7749 31.25Z" fill="#6C63FF"/>
<path d="M96.3226 24.4C96.3226 24.6167 96.3059 24.925 96.2726 25.325H85.7976C85.9809 26.3083 86.4559 27.0917 87.2226 27.675C88.0059 28.2417 88.9726 28.525 90.1226 28.525C91.5893 28.525 92.7976 28.0417 93.7476 27.075L95.4226 29C94.8226 29.7167 94.0643 30.2583 93.1476 30.625C92.2309 30.9917 91.1976 31.175 90.0476 31.175C88.5809 31.175 87.2893 30.8833 86.1726 30.3C85.0559 29.7167 84.1893 28.9083 83.5726 27.875C82.9726 26.825 82.6726 25.6417 82.6726 24.325C82.6726 23.025 82.9643 21.8583 83.5476 20.825C84.1476 19.775 84.9726 18.9583 86.0226 18.375C87.0726 17.7917 88.2559 17.5 89.5726 17.5C90.8726 17.5 92.0309 17.7917 93.0476 18.375C94.0809 18.9417 94.8809 19.75 95.4476 20.8C96.0309 21.8333 96.3226 23.0333 96.3226 24.4ZM89.5726 20C88.5726 20 87.7226 20.3 87.0226 20.9C86.3393 21.4833 85.9226 22.2667 85.7726 23.25H93.3476C93.2143 22.2833 92.8059 21.5 92.1226 20.9C91.4393 20.3 90.5893 20 89.5726 20Z" fill="#6C63FF"/>
<path d="M106.899 17.5C108.583 17.5 109.933 17.9917 110.949 18.975C111.966 19.9583 112.474 21.4167 112.474 23.35V31H109.349V23.75C109.349 22.5833 109.074 21.7083 108.524 21.125C107.974 20.525 107.191 20.225 106.174 20.225C105.024 20.225 104.116 20.575 103.449 21.275C102.783 21.9583 102.449 22.95 102.449 24.25V31H99.3243V17.65H102.299V19.375C102.816 18.7583 103.466 18.2917 104.249 17.975C105.033 17.6583 105.916 17.5 106.899 17.5Z" fill="#6C63FF"/>
<path d="M129.636 12.45V31H126.636V29.275C126.119 29.9083 125.477 30.3833 124.711 30.7C123.961 31.0167 123.127 31.175 122.211 31.175C120.927 31.175 119.769 30.8917 118.736 30.325C117.719 29.7583 116.919 28.9583 116.336 27.925C115.752 26.875 115.461 25.675 115.461 24.325C115.461 22.975 115.752 21.7833 116.336 20.75C116.919 19.7167 117.719 18.9167 118.736 18.35C119.769 17.7833 120.927 17.5 122.211 17.5C123.094 17.5 123.902 17.65 124.636 17.95C125.369 18.25 125.994 18.7 126.511 19.3V12.45H129.636ZM122.586 28.5C123.336 28.5 124.011 28.3333 124.611 28C125.211 27.65 125.686 27.1583 126.036 26.525C126.386 25.8917 126.561 25.1583 126.561 24.325C126.561 23.4917 126.386 22.7583 126.036 22.125C125.686 21.4917 125.211 21.0083 124.611 20.675C124.011 20.325 123.336 20.15 122.586 20.15C121.836 20.15 121.161 20.325 120.561 20.675C119.961 21.0083 119.486 21.4917 119.136 22.125C118.786 22.7583 118.611 23.4917 118.611 24.325C118.611 25.1583 118.786 25.8917 119.136 26.525C119.486 27.1583 119.961 27.65 120.561 28C121.161 28.3333 121.836 28.5 122.586 28.5Z" fill="#6C63FF"/>
<path d="M141.124 17.5C142.424 17.5 143.582 17.7833 144.599 18.35C145.632 18.9167 146.44 19.7167 147.024 20.75C147.607 21.7833 147.899 22.975 147.899 24.325C147.899 25.675 147.607 26.875 147.024 27.925C146.44 28.9583 145.632 29.7583 144.599 30.325C143.582 30.8917 142.424 31.175 141.124 31.175C139.324 31.175 137.899 30.575 136.849 29.375V35.85H133.724V17.65H136.699V19.4C137.215 18.7667 137.849 18.2917 138.599 17.975C139.365 17.6583 140.207 17.5 141.124 17.5ZM140.774 28.5C141.924 28.5 142.865 28.1167 143.599 27.35C144.349 26.5833 144.724 25.575 144.724 24.325C144.724 23.075 144.349 22.0667 143.599 21.3C142.865 20.5333 141.924 20.15 140.774 20.15C140.024 20.15 139.349 20.325 138.749 20.675C138.149 21.0083 137.674 21.4917 137.324 22.125C136.974 22.7583 136.799 23.4917 136.799 24.325C136.799 25.1583 136.974 25.8917 137.324 26.525C137.674 27.1583 138.149 27.65 138.749 28C139.349 28.3333 140.024 28.5 140.774 28.5Z" fill="#6C63FF"/>
<path d="M155.792 17.5C157.758 17.5 159.258 17.975 160.292 18.925C161.342 19.8583 161.867 21.275 161.867 23.175V31H158.917V29.375C158.533 29.9583 157.983 30.4083 157.267 30.725C156.567 31.025 155.717 31.175 154.717 31.175C153.717 31.175 152.842 31.0083 152.092 30.675C151.342 30.325 150.758 29.85 150.342 29.25C149.942 28.6333 149.742 27.9417 149.742 27.175C149.742 25.975 150.183 25.0167 151.067 24.3C151.967 23.5667 153.375 23.2 155.292 23.2H158.742V23C158.742 22.0667 158.458 21.35 157.892 20.85C157.342 20.35 156.517 20.1 155.417 20.1C154.667 20.1 153.925 20.2167 153.192 20.45C152.475 20.6833 151.867 21.0083 151.367 21.425L150.142 19.15C150.842 18.6167 151.683 18.2083 152.667 17.925C153.65 17.6417 154.692 17.5 155.792 17.5ZM155.367 28.9C156.15 28.9 156.842 28.725 157.442 28.375C158.058 28.0083 158.492 27.4917 158.742 26.825V25.275H155.517C153.717 25.275 152.817 25.8667 152.817 27.05C152.817 27.6167 153.042 28.0667 153.492 28.4C153.942 28.7333 154.567 28.9 155.367 28.9Z" fill="#6C63FF"/>
<path d="M178.133 17.65L171.883 32.075C171.3 33.525 170.591 34.5417 169.758 35.125C168.925 35.725 167.916 36.025 166.733 36.025C166.066 36.025 165.408 35.9167 164.758 35.7C164.108 35.4833 163.575 35.1833 163.158 34.8L164.408 32.5C164.708 32.7833 165.058 33.0083 165.458 33.175C165.875 33.3417 166.291 33.425 166.708 33.425C167.258 33.425 167.708 33.2833 168.058 33C168.425 32.7167 168.758 32.2417 169.058 31.575L169.283 31.05L163.458 17.65H166.708L170.908 27.525L175.133 17.65H178.133Z" fill="#6C63FF"/>
</svg>
