<svg width="48" height="76" viewBox="0 0 48 76" fill="none" xmlns="http://www.w3.org/2000/svg">
<path d="M41.4564 0H5.73722C4.22182 0.000629206 2.76864 0.636233 1.69699 1.76715C0.625331 2.89807 0.0228671 4.43179 0.0219727 6.03131V69.9722C0.0234624 71.5716 0.626117 73.1049 1.69764 74.2357C2.76917 75.3665 4.222 76.0023 5.73722 76.0036H41.4564C42.9718 76.002 44.4248 75.3662 45.4968 74.2356C46.5688 73.105 47.1723 71.5718 47.175 69.9722V6.04081C47.1732 4.44097 46.57 2.90725 45.4978 1.77644C44.4256 0.645618 42.9721 0.0101281 41.4564 0.0095" fill="#405866"/>
<path d="M37.7501 4.60283H9.44386C8.24333 4.60283 7.0918 5.1054 6.24185 6.00031C5.39189 6.89522 4.91289 8.10942 4.90991 9.37658V60.0436C4.9123 61.311 5.3911 62.5256 6.24119 63.4206C7.09127 64.3157 8.24315 64.818 9.44386 64.8174H37.7501C40.2477 64.8174 42.2728 62.668 42.2728 60.0436V9.37183C42.2728 6.73558 40.2421 4.59808 37.7501 4.59808" fill="#85CFEA"/>
<path d="M22.8106 4.60278H9.45069C8.25016 4.60277 7.09864 5.10534 6.24868 6.00025C5.39872 6.89517 4.91973 8.10936 4.91675 9.37653V60.0436C4.91913 61.311 5.39794 62.5255 6.24802 63.4206C7.09811 64.3156 8.24998 64.818 9.45069 64.8173H37.7569C38.6716 64.8173 39.5165 64.5217 40.2275 64.0348C28.1929 47.4882 21.7508 25.2451 22.814 4.6004" fill="#28A6DE"/>
<path d="M27.3111 70.5257C27.3111 72.6834 25.6506 74.4421 23.6019 74.4421C21.5531 74.4421 19.8926 72.6846 19.8926 70.5257C19.8926 68.3668 21.5531 66.6093 23.6019 66.6093C25.6506 66.6093 27.3111 68.3668 27.3111 70.5257Z" fill="#CBD5DC"/>
<path d="M13.0175 70.5256C13.025 70.9066 12.9605 71.2853 12.8277 71.6396C12.6948 71.9939 12.4964 72.3167 12.2439 72.589C11.9914 72.8614 11.6899 73.0778 11.3572 73.2256C11.0245 73.3734 10.6671 73.4497 10.3061 73.4499C9.94512 73.4502 9.5877 73.3744 9.25479 73.227C8.92189 73.0796 8.6202 72.8636 8.36738 72.5916C8.11456 72.3196 7.9157 71.9971 7.78245 71.6429C7.64919 71.2888 7.58423 70.9101 7.59135 70.5292C7.60536 69.7798 7.89713 69.066 8.40404 68.5411C8.91095 68.0162 9.59262 67.7219 10.3027 67.7214C11.0129 67.721 11.6949 68.0143 12.2024 68.5386C12.71 69.0629 13.0026 69.7762 13.0175 70.5256" fill="#CBD5DC"/>
<path d="M34.1855 70.5257C34.175 70.9086 34.2374 71.2898 34.369 71.6468C34.5007 72.0038 34.6988 72.3293 34.9517 72.6041C35.2046 72.8788 35.5072 73.0972 35.8415 73.2464C36.1758 73.3955 36.535 73.4724 36.8979 73.4724C37.2609 73.4724 37.6201 73.3955 37.9544 73.2464C38.2887 73.0972 38.5913 72.8788 38.8442 72.6041C39.0971 72.3293 39.2952 72.0038 39.4268 71.6468C39.5585 71.2898 39.6209 70.9086 39.6104 70.5257C39.6104 69.7663 39.3247 69.0381 38.816 68.5012C38.3073 67.9642 37.6173 67.6626 36.8979 67.6626C36.1785 67.6626 35.4886 67.9642 34.9799 68.5012C34.4712 69.0381 34.1855 69.7663 34.1855 70.5257" fill="#CBD5DC"/>
</svg>
